<mxfile host="app.diagrams.net" agent="Mozilla/5.0 (Windows NT 10.0; Win64; x64; rv:137.0) Gecko/20100101 Firefox/137.0" version="26.2.14">
  <diagram name="Page-1" id="isaT6t9z6ES3jZLIkBxj">
    <mxGraphModel dx="2864" dy="2282" grid="1" gridSize="10" guides="1" tooltips="1" connect="1" arrows="1" fold="1" page="1" pageScale="1" pageWidth="827" pageHeight="1169" math="0" shadow="0">
      <root>
        <mxCell id="0" />
        <mxCell id="1" parent="0" />
        <mxCell id="PjNd62AcVg_CB7KNAmyy-5" value="" style="rounded=1;whiteSpace=wrap;html=1;fillColor=#76608a;fontColor=#ffffff;strokeColor=#432D57;gradientColor=none;" vertex="1" parent="1">
          <mxGeometry x="40" y="-110" width="1240" height="630" as="geometry" />
        </mxCell>
        <mxCell id="skBtIDMqRv2-efc8mHkd-3" value="&lt;font style=&quot;font-size: 50px;&quot;&gt;WÃ˜RK&lt;/font&gt;" style="text;html=1;strokeColor=none;fillColor=none;align=center;verticalAlign=middle;whiteSpace=wrap;rounded=0;" parent="1" vertex="1">
          <mxGeometry x="580" y="-110" width="160" height="70" as="geometry" />
        </mxCell>
        <mxCell id="skBtIDMqRv2-efc8mHkd-6" value="" style="group;fillColor=#f0a30a;strokeColor=light-dark(#BD7000,#FFFFFF);fontColor=#000000;rounded=1;" parent="1" vertex="1" connectable="0">
          <mxGeometry x="90" y="35" width="470" height="370" as="geometry" />
        </mxCell>
        <mxCell id="skBtIDMqRv2-efc8mHkd-8" value="&lt;font style=&quot;font-size: 24px;&quot;&gt;FrontEnd&lt;/font&gt;" style="text;html=1;strokeColor=none;fillColor=none;align=center;verticalAlign=middle;whiteSpace=wrap;rounded=0;" parent="skBtIDMqRv2-efc8mHkd-6" vertex="1">
          <mxGeometry x="165.6" y="14.218571428571428" width="110.4" height="21.627380952380953" as="geometry" />
        </mxCell>
        <mxCell id="PjNd62AcVg_CB7KNAmyy-85" value="" style="group" vertex="1" connectable="0" parent="skBtIDMqRv2-efc8mHkd-6">
          <mxGeometry x="232.88748571428567" y="92.32461038961043" width="139.84" height="72.07792207792207" as="geometry" />
        </mxCell>
        <mxCell id="PjNd62AcVg_CB7KNAmyy-86" value="" style="rounded=0;whiteSpace=wrap;html=1;fillColor=none;" vertex="1" parent="PjNd62AcVg_CB7KNAmyy-85">
          <mxGeometry y="12.012987012987013" width="139.84" height="48.05194805194805" as="geometry" />
        </mxCell>
        <mxCell id="PjNd62AcVg_CB7KNAmyy-87" value="&lt;font style=&quot;font-size: 18px;&quot;&gt;Typescript&lt;/font&gt;" style="text;html=1;strokeColor=none;fillColor=none;align=center;verticalAlign=middle;whiteSpace=wrap;rounded=0;" vertex="1" parent="PjNd62AcVg_CB7KNAmyy-85">
          <mxGeometry x="9.988571428571426" width="119.86285714285711" height="72.07792207792207" as="geometry" />
        </mxCell>
        <mxCell id="PjNd62AcVg_CB7KNAmyy-82" value="" style="group" vertex="1" connectable="0" parent="skBtIDMqRv2-efc8mHkd-6">
          <mxGeometry x="68.86594285714285" y="92.32461038961043" width="139.84" height="72.07792207792207" as="geometry" />
        </mxCell>
        <mxCell id="PjNd62AcVg_CB7KNAmyy-83" value="" style="rounded=0;whiteSpace=wrap;html=1;fillColor=none;" vertex="1" parent="PjNd62AcVg_CB7KNAmyy-82">
          <mxGeometry y="12.012987012987013" width="139.84" height="48.05194805194805" as="geometry" />
        </mxCell>
        <mxCell id="PjNd62AcVg_CB7KNAmyy-84" value="&lt;font style=&quot;font-size: 18px;&quot;&gt;Tailwind&lt;/font&gt;" style="text;html=1;strokeColor=none;fillColor=none;align=center;verticalAlign=middle;whiteSpace=wrap;rounded=0;" vertex="1" parent="PjNd62AcVg_CB7KNAmyy-82">
          <mxGeometry x="9.988571428571426" width="119.86285714285711" height="72.07792207792207" as="geometry" />
        </mxCell>
        <mxCell id="PjNd62AcVg_CB7KNAmyy-79" value="" style="group" vertex="1" connectable="0" parent="skBtIDMqRv2-efc8mHkd-6">
          <mxGeometry x="68.86594285714285" y="161.5457297464441" width="139.84" height="72.07792207792207" as="geometry" />
        </mxCell>
        <mxCell id="PjNd62AcVg_CB7KNAmyy-80" value="" style="rounded=0;whiteSpace=wrap;html=1;fillColor=none;" vertex="1" parent="PjNd62AcVg_CB7KNAmyy-79">
          <mxGeometry y="12.012987012987013" width="139.84" height="48.05194805194805" as="geometry" />
        </mxCell>
        <mxCell id="PjNd62AcVg_CB7KNAmyy-81" value="&lt;div&gt;&lt;font style=&quot;font-size: 18px;&quot;&gt;shadCN&lt;/font&gt;&lt;/div&gt;" style="text;html=1;strokeColor=none;fillColor=none;align=center;verticalAlign=middle;whiteSpace=wrap;rounded=0;" vertex="1" parent="PjNd62AcVg_CB7KNAmyy-79">
          <mxGeometry x="9.988571428571426" width="119.86285714285711" height="72.07792207792207" as="geometry" />
        </mxCell>
        <mxCell id="PjNd62AcVg_CB7KNAmyy-88" value="" style="group" vertex="1" connectable="0" parent="skBtIDMqRv2-efc8mHkd-6">
          <mxGeometry x="232.88748571428567" y="161.54858998144715" width="139.84" height="72.07792207792207" as="geometry" />
        </mxCell>
        <mxCell id="PjNd62AcVg_CB7KNAmyy-89" value="" style="rounded=0;whiteSpace=wrap;html=1;fillColor=none;" vertex="1" parent="PjNd62AcVg_CB7KNAmyy-88">
          <mxGeometry y="12.012987012987013" width="139.84" height="48.05194805194805" as="geometry" />
        </mxCell>
        <mxCell id="PjNd62AcVg_CB7KNAmyy-90" value="&lt;font style=&quot;font-size: 18px;&quot;&gt;StoryBook&lt;/font&gt;" style="text;html=1;strokeColor=none;fillColor=none;align=center;verticalAlign=middle;whiteSpace=wrap;rounded=0;" vertex="1" parent="PjNd62AcVg_CB7KNAmyy-88">
          <mxGeometry x="9.988571428571426" width="119.86285714285711" height="72.07792207792207" as="geometry" />
        </mxCell>
        <mxCell id="PjNd62AcVg_CB7KNAmyy-108" value="" style="rounded=0;whiteSpace=wrap;html=1;fillColor=none;strokeColor=none;" vertex="1" parent="skBtIDMqRv2-efc8mHkd-6">
          <mxGeometry x="430" y="130" width="40" height="110" as="geometry" />
        </mxCell>
        <mxCell id="PjNd62AcVg_CB7KNAmyy-110" value="" style="rounded=0;whiteSpace=wrap;html=1;fillColor=none;strokeColor=none;" vertex="1" parent="skBtIDMqRv2-efc8mHkd-6">
          <mxGeometry y="142.58" width="40" height="110" as="geometry" />
        </mxCell>
        <mxCell id="PjNd62AcVg_CB7KNAmyy-4" value="&lt;font style=&quot;font-size: 50px; color: light-dark(rgb(0, 0, 0), rgb(255, 255, 255));&quot;&gt;Microsoft Entry&lt;/font&gt;" style="rounded=1;whiteSpace=wrap;html=1;fillColor=#008a00;strokeColor=#005700;fontColor=#ffffff;strokeWidth=5;" vertex="1" parent="1">
          <mxGeometry x="650" y="580" width="440" height="150" as="geometry" />
        </mxCell>
        <mxCell id="PjNd62AcVg_CB7KNAmyy-7" value="" style="group;fillColor=#60a917;strokeColor=default;fontColor=#ffffff;rounded=1;" vertex="1" connectable="0" parent="1">
          <mxGeometry x="700" y="130" width="340" height="180" as="geometry" />
        </mxCell>
        <mxCell id="PjNd62AcVg_CB7KNAmyy-32" value="" style="group" vertex="1" connectable="0" parent="PjNd62AcVg_CB7KNAmyy-7">
          <mxGeometry x="73.18106995966038" y="35.99836363636364" width="123.59665778358182" height="68.72727272727273" as="geometry" />
        </mxCell>
        <mxCell id="PjNd62AcVg_CB7KNAmyy-16" value="&lt;font style=&quot;font-size: 24px;&quot;&gt;BackEnd&lt;/font&gt;" style="text;html=1;strokeColor=none;fillColor=none;align=center;verticalAlign=middle;whiteSpace=wrap;rounded=0;" vertex="1" parent="PjNd62AcVg_CB7KNAmyy-7">
          <mxGeometry x="126.67741640465958" y="17.997" width="86.65484434498606" height="14.73" as="geometry" />
        </mxCell>
        <mxCell id="PjNd62AcVg_CB7KNAmyy-33" value="&lt;font style=&quot;font-size: 18px; color: light-dark(rgb(0, 0, 0), rgb(255, 255, 255));&quot;&gt;Drizzle&lt;/font&gt;" style="rounded=0;whiteSpace=wrap;html=1;fillColor=#60a917;direction=east;strokeColor=light-dark(#2D7600,#FFFFFF);fontColor=#ffffff;" vertex="1" parent="PjNd62AcVg_CB7KNAmyy-7">
          <mxGeometry x="205.32956541663486" y="67.086" width="158.22347819445505" height="45.818999999999996" as="geometry" />
        </mxCell>
        <mxCell id="PjNd62AcVg_CB7KNAmyy-97" style="edgeStyle=orthogonalEdgeStyle;rounded=0;orthogonalLoop=1;jettySize=auto;html=1;exitX=1;exitY=0.5;exitDx=0;exitDy=0;entryX=0;entryY=0.5;entryDx=0;entryDy=0;startArrow=classic;startFill=1;strokeWidth=3;" edge="1" parent="PjNd62AcVg_CB7KNAmyy-7" source="PjNd62AcVg_CB7KNAmyy-95" target="PjNd62AcVg_CB7KNAmyy-33">
          <mxGeometry relative="1" as="geometry" />
        </mxCell>
        <mxCell id="PjNd62AcVg_CB7KNAmyy-95" value="&lt;font style=&quot;color: light-dark(rgb(0, 0, 0), rgb(255, 255, 255)); font-size: 18px;&quot;&gt;OAuth&lt;/font&gt;" style="rounded=0;whiteSpace=wrap;html=1;fillColor=#60a917;direction=east;strokeColor=light-dark(#2D7600,#FFFFFF);fontColor=#ffffff;" vertex="1" parent="PjNd62AcVg_CB7KNAmyy-7">
          <mxGeometry x="-31.55043458336513" y="67.086" width="158.22347819445505" height="45.818999999999996" as="geometry" />
        </mxCell>
        <mxCell id="PjNd62AcVg_CB7KNAmyy-101" value="" style="rounded=0;whiteSpace=wrap;html=1;fillColor=none;fontColor=#ffffff;strokeColor=none;" vertex="1" parent="PjNd62AcVg_CB7KNAmyy-7">
          <mxGeometry x="110" y="120" width="120" height="60" as="geometry" />
        </mxCell>
        <mxCell id="skBtIDMqRv2-efc8mHkd-22" value="" style="group" parent="1" vertex="1" connectable="0">
          <mxGeometry x="1050" y="-50" width="120" height="120" as="geometry" />
        </mxCell>
        <mxCell id="skBtIDMqRv2-efc8mHkd-23" value="" style="shape=cylinder3;whiteSpace=wrap;html=1;boundedLbl=1;backgroundOutline=1;size=15;fillColor=#b1ddf0;strokeColor=#10739e;" parent="skBtIDMqRv2-efc8mHkd-22" vertex="1">
          <mxGeometry width="120" height="120" as="geometry" />
        </mxCell>
        <mxCell id="skBtIDMqRv2-efc8mHkd-24" value="PostgreSQL&lt;br&gt;Database" style="text;html=1;strokeColor=none;fillColor=none;align=center;verticalAlign=middle;whiteSpace=wrap;rounded=0;fontSize=16;" parent="skBtIDMqRv2-efc8mHkd-22" vertex="1">
          <mxGeometry x="19.379000000000005" y="60" width="81.24200000000002" height="26.142" as="geometry" />
        </mxCell>
        <mxCell id="PjNd62AcVg_CB7KNAmyy-93" style="edgeStyle=orthogonalEdgeStyle;rounded=1;orthogonalLoop=1;jettySize=auto;html=1;exitX=1;exitY=0.5;exitDx=0;exitDy=0;entryX=0.5;entryY=1;entryDx=0;entryDy=0;entryPerimeter=0;startArrow=classic;startFill=1;strokeWidth=4;curved=0;" edge="1" parent="1" source="PjNd62AcVg_CB7KNAmyy-33" target="skBtIDMqRv2-efc8mHkd-23">
          <mxGeometry relative="1" as="geometry" />
        </mxCell>
        <mxCell id="PjNd62AcVg_CB7KNAmyy-102" style="edgeStyle=orthogonalEdgeStyle;rounded=0;orthogonalLoop=1;jettySize=auto;html=1;strokeWidth=4;startArrow=classic;startFill=1;shadow=0;flowAnimation=0;curved=1;exitX=0.5;exitY=1;exitDx=0;exitDy=0;" edge="1" parent="1" source="PjNd62AcVg_CB7KNAmyy-101" target="PjNd62AcVg_CB7KNAmyy-4">
          <mxGeometry relative="1" as="geometry">
            <mxPoint x="340" y="370" as="sourcePoint" />
          </mxGeometry>
        </mxCell>
        <mxCell id="PjNd62AcVg_CB7KNAmyy-104" style="edgeStyle=orthogonalEdgeStyle;rounded=1;orthogonalLoop=1;jettySize=auto;html=1;strokeWidth=4;entryX=0;entryY=0.5;entryDx=0;entryDy=0;curved=0;" edge="1" parent="1" source="PjNd62AcVg_CB7KNAmyy-103" target="PjNd62AcVg_CB7KNAmyy-110">
          <mxGeometry relative="1" as="geometry">
            <mxPoint x="100" y="220" as="targetPoint" />
          </mxGeometry>
        </mxCell>
        <mxCell id="PjNd62AcVg_CB7KNAmyy-105" value="&lt;font style=&quot;font-size: 24px;&quot;&gt;HTTPS&lt;/font&gt;" style="edgeLabel;html=1;align=center;verticalAlign=middle;resizable=0;points=[];" vertex="1" connectable="0" parent="PjNd62AcVg_CB7KNAmyy-104">
          <mxGeometry x="-0.1324" y="1" relative="1" as="geometry">
            <mxPoint as="offset" />
          </mxGeometry>
        </mxCell>
        <mxCell id="PjNd62AcVg_CB7KNAmyy-103" value="&lt;font style=&quot;font-size: 40px;&quot;&gt;Client&lt;/font&gt;" style="rounded=1;whiteSpace=wrap;html=1;fillColor=#0050ef;fontColor=#ffffff;strokeColor=#001DBC;glass=0;shadow=0;strokeWidth=6;fillStyle=auto;" vertex="1" parent="1">
          <mxGeometry x="-370" y="167.58" width="200" height="130" as="geometry" />
        </mxCell>
        <mxCell id="PjNd62AcVg_CB7KNAmyy-109" style="edgeStyle=orthogonalEdgeStyle;rounded=1;orthogonalLoop=1;jettySize=auto;html=1;exitX=1;exitY=0.5;exitDx=0;exitDy=0;entryX=0;entryY=0.5;entryDx=0;entryDy=0;startArrow=classic;startFill=1;strokeWidth=3;curved=0;" edge="1" parent="1" source="PjNd62AcVg_CB7KNAmyy-108" target="PjNd62AcVg_CB7KNAmyy-95">
          <mxGeometry relative="1" as="geometry" />
        </mxCell>
      </root>
    </mxGraphModel>
  </diagram>
</mxfile>
